<svg width="65" height="65" viewBox="0 0 65 65" fill="none" xmlns="http://www.w3.org/2000/svg">
<path d="M9.84447 43.3114L12.5048 41.9589V47.1292C12.5048 49.1733 10.8689 50.836 8.85765 50.836C6.84643 50.836 5.21046 49.1733 5.21046 47.1292V33.8907H3.12632V47.1292C3.12632 50.3405 5.69709 52.9542 8.85765 52.9542C12.0182 52.9542 14.589 50.3403 14.589 47.1292V38.5316L8.91278 41.4166L9.84447 43.3114Z" fill="#333333"/>
<path d="M5.21046 0H3.12632V27.5362H5.21046V0Z" fill="#333333"/>
<path d="M4.16828 34.9496C1.86939 34.9496 0 33.0497 0 30.7133C0 28.3769 1.86939 26.477 4.16828 26.477C6.46717 26.477 8.33655 28.3769 8.33655 30.7133C8.33655 33.0497 6.46717 34.9496 4.16828 34.9496ZM4.16828 28.5951C3.01894 28.5951 2.08414 29.5452 2.08414 30.7133C2.08414 31.8814 3.01894 32.8315 4.16828 32.8315C5.31761 32.8315 6.25242 31.8814 6.25242 30.7133C6.25242 29.5452 5.31761 28.5951 4.16828 28.5951Z" fill="#F79727"/>
<path d="M61.4822 50.7056V42.3633C61.4822 37.7605 60.3182 33.4288 58.2767 29.6543H58.3559C58.3559 26.6708 59.7584 23.8199 62.1073 22.0289L64.6083 20.1225H49.5389C45.4696 17.4471 40.627 15.8861 35.4304 15.8861H20.9457C20.1422 15.2115 19.1198 14.8269 18.0623 14.8269C15.5729 14.8269 13.547 16.8848 13.547 19.416V19.7189C13.547 20.9273 14.0285 22.1103 14.8693 22.9639L17.4796 25.6168C15.0869 27.5592 13.5468 30.5436 13.5468 33.8904V34.9496H38.5565C47.1327 34.9496 54.1187 42.0063 54.1876 50.7076L50.6716 65L55.0097 63.8986C56.8542 63.4293 58.8163 63.4293 60.663 63.8986L65 65L61.4822 50.7056ZM58.8968 22.2406C57.7879 23.6112 57.0042 25.2305 56.597 26.9557C55.3663 25.2146 53.9344 23.6313 52.3338 22.2406H58.8968ZM16.3428 21.4675C15.8906 21.0068 15.6309 20.3692 15.6309 19.7189V19.416C15.6309 18.054 16.722 16.9451 18.0621 16.9451C18.8228 16.9451 19.5502 17.3147 20.0077 17.9331L23.9677 23.2996C22.2786 23.2996 20.6873 23.7189 19.2752 24.4467L16.3428 21.4675ZM60.44 61.7074V59.3086H58.3559V61.4607C58.0077 61.4469 57.6618 61.4469 57.3137 61.4607V59.3086H55.2296V61.7074C54.9879 61.7551 54.7418 61.7836 54.5033 61.8441L53.5362 62.0888L56.2415 51.0913L56.2717 50.836C56.2717 40.908 48.3249 32.8315 38.5565 32.8315H15.6956C16.2105 28.6586 19.7243 25.4178 23.9675 25.4178H25.5316L26.4684 26.6875C27.8388 28.5452 30.0209 29.6541 32.304 29.6541C36.3265 29.6541 39.5986 26.3276 39.5986 22.2404V21.1812H37.5145V22.2404C37.5145 25.1602 35.1771 27.5359 32.304 27.5359C30.6732 27.5359 29.1144 26.7438 28.1358 25.4178L22.665 18.0041H35.4304C48.6459 18.0041 59.3981 28.9306 59.3981 42.3631V50.8357L62.1336 62.0895L61.1676 61.8448C60.9289 61.7836 60.6828 61.7551 60.44 61.7074Z" fill="#333333"/>
<path d="M32.8251 20.1225C31.3892 20.1225 30.2199 21.3098 30.2199 22.7702C30.2199 24.2307 31.389 25.418 32.8251 25.418C34.2612 25.418 35.4304 24.2307 35.4304 22.7702C35.4304 21.3098 34.2612 20.1225 32.8251 20.1225ZM32.8251 23.2998C32.5375 23.2998 32.304 23.0615 32.304 22.7702C32.304 22.479 32.5375 22.2406 32.8251 22.2406C33.1128 22.2406 33.3462 22.479 33.3462 22.7702C33.3462 23.0615 33.1128 23.2998 32.8251 23.2998Z" fill="#333333"/>
<path d="M45.9355 23.7467L43.1918 22.3529L42.2592 24.2476L45.0029 25.6414C45.526 25.9074 45.8513 26.4422 45.8513 27.0362C45.8513 27.8961 45.1626 28.5951 44.3173 28.5951H44.186C44.0212 28.5951 43.8576 28.5687 43.7013 28.5156L40.9712 27.5911L40.3116 29.599L43.0417 30.5235C43.4106 30.6496 43.7963 30.7131 44.1849 30.7131H44.3162C46.3119 30.7131 47.9354 29.063 47.9354 27.0359C47.9352 25.634 47.1693 24.3737 45.9355 23.7467Z" fill="#333333"/>
</svg>
