<svg width="25" height="25" viewBox="0 0 25 25" fill="none" xmlns="http://www.w3.org/2000/svg">
<path d="M12.5 25C10.0278 25 7.61102 24.2669 5.55541 22.8934C3.4998 21.5198 1.8976 19.5676 0.951504 17.2836C0.00541011 14.9995 -0.242123 12.4862 0.240191 10.0614C0.722506 7.63665 1.91305 5.40936 3.66121 3.66121C5.40936 1.91305 7.63665 0.722506 10.0614 0.240191C12.4862 -0.242123 14.9995 0.00541011 17.2836 0.951504C19.5676 1.8976 21.5198 3.4998 22.8934 5.55541C24.2669 7.61102 25 10.0278 25 12.5C25 15.8152 23.683 18.9946 21.3388 21.3388C18.9946 23.683 15.8152 25 12.5 25ZM16.0708 21.5278C13.7878 20.6027 11.2344 20.6027 8.95142 21.5278C11.2344 22.4528 13.7878 22.4528 16.0708 21.5278ZM12.5 2.77781C10.5166 2.7701 8.57865 3.37161 6.94811 4.50095C5.31758 5.63029 4.07308 7.23299 3.3829 9.09248C2.69273 10.952 2.59015 12.9786 3.089 14.8983C3.58786 16.818 4.66406 18.5382 6.17221 19.8264C8.08045 18.669 10.2695 18.0569 12.5014 18.0569C14.7332 18.0569 16.9223 18.669 18.8305 19.8264C20.3389 18.538 21.4152 16.8175 21.914 14.8976C22.4128 12.9776 22.3099 10.9508 21.6194 9.09121C20.9289 7.23159 19.684 5.6288 18.053 4.49968C16.422 3.37055 14.4837 2.76953 12.5 2.77781ZM12.5 16.6667C11.4012 16.6667 10.3271 16.3408 9.41351 15.7304C8.4999 15.1199 7.78788 14.2523 7.36739 13.2372C6.94691 12.222 6.83683 11.105 7.0512 10.0273C7.26556 8.94966 7.79469 7.95972 8.57165 7.18276C9.34861 6.4058 10.3386 5.87667 11.4162 5.66231C12.4939 5.44795 13.6109 5.55802 14.6261 5.97851C15.6412 6.39899 16.5088 7.11102 17.1193 8.02462C17.7297 8.93823 18.0556 10.0123 18.0556 11.1111C18.0556 12.5846 17.4703 13.9976 16.4284 15.0395C15.3865 16.0814 13.9734 16.6667 12.5 16.6667ZM12.5 8.33336C11.9506 8.33336 11.4136 8.49624 10.9568 8.80146C10.5 9.10669 10.1439 9.54053 9.93366 10.0481C9.72342 10.5557 9.66847 11.1142 9.77565 11.6531C9.88283 12.1919 10.1474 12.6868 10.5359 13.0753C10.9244 13.4638 11.4192 13.7283 11.9581 13.8355C12.4969 13.9427 13.0555 13.8877 13.563 13.6775C14.0706 13.4672 14.5045 13.1112 14.8097 12.6544C15.1149 12.1976 15.2778 11.6605 15.2778 11.1111C15.2778 10.3744 14.9851 9.66792 14.4642 9.14699C13.9432 8.62605 13.2367 8.33336 12.5 8.33336Z" fill="#F79727"/>
</svg>
